<?xml version="1.0" encoding="UTF-8"?>
<svg width="15px" height="14px" viewBox="0 0 15 14" version="1.1" xmlns="http://www.w3.org/2000/svg" xmlns:xlink="http://www.w3.org/1999/xlink">
    <!-- Generator: Sketch 60.1 (88133) - https://sketch.com -->
    <title>add-dark copy</title>
    <desc>Created with Sketch.</desc>
    <g id="Desktop" stroke="none" stroke-width="1" fill="none" fill-rule="evenodd">
        <g id="Drive-desktop---Tabs----Activite" transform="translate(-1285.000000, -343.000000)" fill="#FFFFFF">
            <g id="App" transform="translate(560.000000, 300.000000)">
                <g id="Title-Bar">
                    <g id="Toolbar-Button">
                        <g transform="translate(725.000000, 39.000000)">
                            <g id="Icon" transform="translate(0.500000, 4.000000)">
                                <g id="add-circle-alternate" transform="translate(0.250000, 0.250000)">
                                    <path d="M1.20933066,7.9597277 L5.29880321,7.9597277 C5.43238219,7.9597277 5.54066934,8.06800709 5.54066934,8.2015765 L5.54066934,12.290756 C5.54066934,12.958603 6.08210512,13.5 6.75,13.5 C7.41789488,13.5 7.95933066,12.958603 7.95933066,12.290756 L7.95933066,8.2015765 C7.95933066,8.06800709 8.06761781,7.9597277 8.20119679,7.9597277 L12.2906693,7.9597277 C12.9585642,7.9597277 13.5,7.41833072 13.5,6.7504837 C13.5,6.08263668 12.9585642,5.5412397 12.2906693,5.5412397 L8.20119679,5.5412397 C8.06761781,5.5412397 7.95933066,5.4329603 7.95933066,5.2993909 L7.95933066,1.209244 C7.95933066,0.541396979 7.41789488,0 6.75,0 C6.08210512,0 5.54066934,0.541396979 5.54066934,1.209244 L5.54066934,5.2993909 C5.54066934,5.4329603 5.43238219,5.5412397 5.29880321,5.5412397 L1.20933066,5.5412397 C0.541435778,5.5412397 0,6.08263668 0,6.7504837 C0,7.41833072 0.541435778,7.9597277 1.20933066,7.9597277 L1.20933066,7.9597277 Z" id="add-dark-copy"></path>
                                </g>
                            </g>
                        </g>
                    </g>
                </g>
            </g>
        </g>
    </g>
</svg>