<?xml version="1.0" encoding="UTF-8"?>
<svg width="16px" height="16px" viewBox="0 0 16 16" version="1.1" xmlns="http://www.w3.org/2000/svg" xmlns:xlink="http://www.w3.org/1999/xlink">
    <!-- Generator: Sketch 60.1 (88133) - https://sketch.com -->
    <title>delete-white</title>
    <desc>Created with Sketch.</desc>
    <defs>
        <path d="M8,37 C12.418278,37 16,33.418278 16,29 C16,24.581722 12.418278,21 8,21 C3.581722,21 0,24.581722 0,29 C0.00498379363,33.416212 3.583788,36.9950162 8,37 Z M4.55652174,27.0326957 C4.42589423,26.9022134 4.35249624,26.7251543 4.35249624,26.5405217 C4.35249624,26.3558892 4.42589423,26.1788301 4.55652174,26.0483478 L5.04834783,25.5565217 C5.17883009,25.4258942 5.35588922,25.3524962 5.54052174,25.3524962 C5.72515426,25.3524962 5.90221339,25.4258942 6.03269565,25.5565217 L7.87686957,27.4 C7.90949713,27.4327102 7.95379921,27.4510935 8,27.4510935 C8.04620079,27.4510935 8.09050287,27.4327102 8.12313043,27.4 L9.96730435,25.5565217 C10.0977866,25.4258942 10.2748457,25.3524962 10.4594783,25.3524962 C10.6441108,25.3524962 10.8211699,25.4258942 10.9516522,25.5565217 L11.4434783,26.0483478 C11.5741058,26.1788301 11.6475038,26.3558892 11.6475038,26.5405217 C11.6475038,26.7251543 11.5741058,26.9022134 11.4434783,27.0326957 L9.6,28.8768696 C9.56728984,28.9094971 9.54890651,28.9537992 9.54890651,29 C9.54890651,29.0462008 9.56728984,29.0905029 9.6,29.1231304 L11.4448696,30.9673043 C11.5754971,31.0977866 11.6488951,31.2748457 11.6488951,31.4594783 C11.6488951,31.6441108 11.5754971,31.8211699 11.4448696,31.9516522 L10.9530435,32.4434783 C10.8225612,32.5741058 10.6455021,32.6475038 10.4608696,32.6475038 C10.276237,32.6475038 10.0991779,32.5741058 9.96869565,32.4434783 L8.12313043,30.6 C8.05486363,30.5326367 7.94513637,30.5326367 7.87686957,30.6 L6.03269565,32.4434783 C5.90221339,32.5741058 5.72515426,32.6475038 5.54052174,32.6475038 C5.35588922,32.6475038 5.17883009,32.5741058 5.04834783,32.4434783 L4.55652174,31.9516522 C4.42589423,31.8211699 4.35249624,31.6441108 4.35249624,31.4594783 C4.35249624,31.2748457 4.42589423,31.0977866 4.55652174,30.9673043 L6.4,29.1231304 C6.43271016,29.0905029 6.45109349,29.0462008 6.45109349,29 C6.45109349,28.9537992 6.43271016,28.9094971 6.4,28.8768696 L4.55652174,27.0326957 Z" id="path-1"></path>
    </defs>
    <g id="Desktop" stroke="none" stroke-width="1" fill="none" fill-rule="evenodd">
        <g id="Drive-desktop---Tabs----Drive-Copy-2" transform="translate(-1280.000000, -525.000000)">
            <g id="App" transform="translate(553.000000, 345.000000)">
                <g id="Box" transform="translate(20.000000, 159.000000)">
                    <g id="Buttons/Secondary/Icon--Copy" transform="translate(707.000000, 0.000000)">
                        <g id="Icons/Streamline/move-down-1-Copy">
                            <mask id="mask-2" fill="white">
                                <use xlink:href="#path-1"></use>
                            </mask>
                            <use id="delete-white" fill="#FFFFFF" xlink:href="#path-1"></use>
                        </g>
                    </g>
                </g>
            </g>
        </g>
    </g>
</svg>