<?xml version="1.0" encoding="UTF-8"?>
<svg width="14px" height="4px" viewBox="0 0 14 4" version="1.1" xmlns="http://www.w3.org/2000/svg" xmlns:xlink="http://www.w3.org/1999/xlink">
    <!-- Generator: Sketch 60.1 (88133) - https://sketch.com -->
    <title>more-white</title>
    <desc>Created with Sketch.</desc>
    <g id="Desktop" stroke="none" stroke-width="1" fill="none" fill-rule="evenodd">
        <g id="more-white" transform="translate(-64.000000, -39.000000)" fill-rule="nonzero">
            <rect id="Rectangle" fill-opacity="0" fill="#000000" x="0.103" y="0.007" width="163.31" height="97.986"></rect>
            <path d="M66,39 C64.8954,39 64,39.8954 64,41 C64,42.1046 64.8954,43 66,43 C67.1046,43 68,42.1046 68,41 C68,39.8954 67.1046,39 66,39 Z M71,39 C69.8954,39 69,39.8954 69,41 C69,42.1046 69.8954,43 71,43 C72.1046,43 73,42.1046 73,41 C73,39.8954 72.1046,39 71,39 Z M76,39 C74.895,39 74,39.8954 74,41 C74,42.1046 74.895,43 76,43 C77.105,43 78,42.1046 78,41 C78,39.8954 77.105,39 76,39 Z" id="Shape" fill="#FFFFFF"></path>
        </g>
    </g>
</svg>