<?xml version="1.0" encoding="UTF-8"?>
<svg width="16px" height="16px" viewBox="0 0 16 16" version="1.1" xmlns="http://www.w3.org/2000/svg" xmlns:xlink="http://www.w3.org/1999/xlink">
    <!-- Generator: Sketch 56.3 (81716) - https://sketch.com -->
    <title>theme/colored/state-warning</title>
    <desc>Created with Sketch.</desc>
    <g id="theme/colored/state-warning" stroke="none" stroke-width="1" fill="none" fill-rule="evenodd">
        <g id="alert-circle">
            <path d="M7.98905098,0.00178769219 C5.85162834,0.0367796752 3.81383458,0.9115224 2.31618346,2.43692107 C0.802084506,3.9443576 -0.0336809866,6.00284825 0.00104022636,8.13911952 C-0.00144305169,10.2256496 0.826647929,12.2273668 2.30248622,13.7023296 C3.77832451,15.1772924 5.78053277,16.0041954 7.867061,16.0004865 L8.00971595,16.0004865 C12.4615051,15.9546715 16.0359871,12.313686 15.9997265,7.86180896 L15.9997265,7.86180896 C16.0046957,5.74941569 15.157391,3.72431954 13.6495881,2.24487349 C12.1417853,0.76542744 10.1009693,-0.0432812307 7.98905098,0.00178769219 Z" id="Shape" fill="#FF8500"></path>
            <g id="Group" transform="translate(6.000000, 2.000000)" fill="#FFFFFF">
                <path d="M0.251163564,10.7843858 C0.234180087,10.3224439 0.403697261,9.87308196 0.721555268,9.53745549 C1.03941328,9.20182902 1.47889958,9.00814377 1.94108192,9 L1.97257109,9 C2.92893291,9.00183875 3.71309561,9.7587128 3.74879307,10.7144099 C3.76609961,11.1764393 3.59669047,11.6259853 3.27876417,11.9616839 C2.96083787,12.2973825 2.52116188,12.4909698 2.05887471,12.4987958 L2.02738555,12.4987958 C1.07151038,12.4957565 0.288043572,11.7395541 0.251163564,10.7843858 Z" id="Path" fill-rule="nonzero"></path>
                <rect id="Rectangle" x="0.5" y="0" width="3" height="8" rx="1.5"></rect>
            </g>
        </g>
    </g>
</svg>