<?xml version="1.0" encoding="UTF-8"?>
<svg width="16px" height="16px" viewBox="0 0 16 16" version="1.1" xmlns="http://www.w3.org/2000/svg" xmlns:xlink="http://www.w3.org/1999/xlink">
    <!-- Generator: Sketch 63.1 (92452) - https://sketch.com -->
    <title>icons/theme/white/state-download</title>
    <desc>Created with Sketch.</desc>
    <g id="icons/theme/white/state-download" stroke="none" stroke-width="1" fill="none" fill-rule="evenodd">
        <path d="M8,0 C12.416298,0.00477656508 15.9952234,3.58370203 16,8 C16,12.418278 12.418278,16 8,16 C3.581722,16 0,12.418278 0,8 C0,3.581722 3.581722,0 8,0 Z M8,1.33333333 C4.31810167,1.33333333 1.33333333,4.31810167 1.33333333,8 C1.33333333,11.6818983 4.31810167,14.6666667 8,14.6666667 C11.680223,14.6626251 14.6626251,11.680223 14.6666667,8 C14.6666667,4.31810167 11.6818983,1.33333333 8,1.33333333 Z M8.33866667,3.686 C8.7068565,3.686 9.00533333,3.98447683 9.00533333,4.35266667 L9.00533333,8.676 C9.00533333,9.04266667 9.22666667,9.14266667 9.49666667,8.892 L11.222,7.31 C11.4976501,7.06703564 11.9138733,7.0772016 12.1773333,7.33333333 L12.3773333,7.53333333 C12.5009338,7.65791141 12.5693435,7.8268973 12.567261,8.00237449 C12.5650819,8.17785167 12.4925891,8.3451266 12.366,8.46666667 L8.48266667,12.2066667 C8.21239069,12.4613149 7.79104656,12.4630632 7.51866667,12.2106667 L3.63733333,8.53333333 C3.50904676,8.41282202 3.43524044,8.24535217 3.43279211,8.06935582 C3.4304634,7.89335947 3.49969776,7.72394835 3.62466667,7.6 L3.82466667,7.40333333 C4.09087036,7.14349103 4.51188843,7.13131282 4.79266667,7.37533333 L6.508,8.90866667 C6.78133333,9.15266667 7.00533333,9.05266667 7.00533333,8.686 L7.00533333,4.35266667 C7.00533333,3.98447683 7.30381017,3.686 7.672,3.686 L8.33866667,3.686 Z" id="Combined-Shape" fill="#FFFFFF" fill-rule="nonzero"></path>
    </g>
</svg>