<?xml version="1.0" encoding="UTF-8"?>
<svg width="16px" height="16px" viewBox="0 0 16 16" version="1.1" xmlns="http://www.w3.org/2000/svg" xmlns:xlink="http://www.w3.org/1999/xlink">
    <!-- Generator: Sketch 64 (93537) - https://sketch.com -->
    <title>icons/theme/colored/state-download</title>
    <desc>Created with Sketch.</desc>
    <defs>
        <path d="M15,3.10000886 L7.49066667,3.10000886 C7.36451894,3.10000441 7.24918085,3.02522823 7.19266667,2.906809 L6.56133333,1.57680999 C6.39165837,1.22172184 6.04502112,0.998241716 5.66666667,1 L1,1 C0.44771525,1 0,1.47011108 0,2.05000964 L0,13.9500008 C0,14.5298993 0.44771525,15 1,15 L15,15 C15.5522847,15 16,14.5298993 16,13.9500008 L16,4.15000808 C16,3.57010952 15.5522847,3.10000886 15,3.10000886 Z" id="path-1"></path>
    </defs>
    <g id="icons/theme/colored/state-download" stroke="none" stroke-width="1" fill="none" fill-rule="evenodd">
        <mask id="mask-2" fill="white">
            <use xlink:href="#path-1"></use>
        </mask>
        <use id="icon" fill="#0098FF" xlink:href="#path-1"></use>
        <path d="M12.366,9.46666667 L8.48266667,13.2066667 C8.21239069,13.4613149 7.79104656,13.4630632 7.51866667,13.2106667 L3.63733333,9.53333333 C3.50904676,9.41282202 3.43524044,9.24535217 3.43279211,9.06935582 C3.4304634,8.89335947 3.49969776,8.72394835 3.62466667,8.6 L3.82466667,8.40333333 C4.09087036,8.14349103 4.51188843,8.13131282 4.79266667,8.37533333 L6.508,9.90866667 C6.78133333,10.1526667 7.00533333,10.0526667 7.00533333,9.686 L7.00533333,5.35266667 C7.00533333,4.98447683 7.30381017,4.686 7.672,4.686 L8.33866667,4.686 C8.7068565,4.686 9.00533333,4.98447683 9.00533333,5.35266667 L9.00533333,9.676 C9.00533333,10.0426667 9.22666667,10.1426667 9.49666667,9.892 L11.222,8.31 C11.4976501,8.06703564 11.9138733,8.0772016 12.1773333,8.33333333 L12.3773333,8.53333333 C12.5009338,8.65791141 12.5693435,8.8268973 12.567261,9.00237449 C12.5650819,9.17785167 12.4925891,9.3451266 12.366,9.46666667 L12.366,9.46666667 Z" id="Path" fill="#FFFFFF" fill-rule="nonzero" mask="url(#mask-2)"></path>
    </g>
</svg>