<?xml version="1.0" encoding="UTF-8"?>
<svg width="16px" height="16px" viewBox="0 0 16 16" version="1.1" xmlns="http://www.w3.org/2000/svg" xmlns:xlink="http://www.w3.org/1999/xlink">
    <!-- Generator: Sketch 63.1 (92452) - https://sketch.com -->
    <title>icons/theme/colored/state-sync</title>
    <desc>Created with Sketch.</desc>
    <defs>
        <path d="M8,16 C12.418278,16 16,12.418278 16,8 C16,3.581722 12.418278,-6.39488462e-14 8,-6.39488462e-14 C3.581722,-6.39488462e-14 3.90798505e-13,3.581722 3.90798505e-13,8 C0.00498379363,12.416212 3.583788,15.9950162 8,16 Z" id="path-1"></path>
    </defs>
    <g id="icons/theme/colored/state-sync" stroke="none" stroke-width="1" fill="none" fill-rule="evenodd">
        <g id="Sync">
            <mask id="mask-2" fill="white">
                <use xlink:href="#path-1"></use>
            </mask>
            <use id="Combined-Shape" fill="#0098FF" xlink:href="#path-1"></use>
            <path d="M12.5429973,6.267074 C12.6241574,6.27654019 12.6961704,6.32435978 12.7373011,6.39609977 L12.7373011,6.39609977 L14.0326598,8.67590617 C14.0819502,8.7622729 14.0789404,8.86954524 14.0248876,8.95291661 C13.9765606,9.02634847 13.8952235,9.0702547 13.8083036,9.06982976 C13.7979539,9.07057948 13.7875648,9.07057948 13.777215,9.06982976 L13.777215,9.06982976 L13.2290192,9.00294701 C13.1660071,8.99548457 13.1068917,9.03531826 13.0891205,9.09721482 C12.5654283,10.9497722 11.1105231,12.3785559 9.27092125,12.8468618 C7.45831402,13.2838824 5.55624796,12.6704444 4.32316925,11.2511553 C4.16351964,11.0759797 4.10971687,10.8266705 4.18257189,10.5996605 C4.25542692,10.3726505 4.44351517,10.2035377 4.67408402,10.157735 C4.90465287,10.1119323 5.14154631,10.1966221 5.29313383,10.3790464 C6.21002217,11.4342534 7.62421379,11.8903653 8.97195247,11.5655568 C10.2660426,11.2334005 11.3104653,10.2645889 11.7538648,8.98504139 C11.7669246,8.94723141 11.7625479,8.9054551 11.7419475,8.87128806 C11.7212846,8.8370819 11.6863463,8.81437821 11.6471272,8.80967167 L11.6471272,8.80967167 L10.6895981,8.69328516 C10.5923262,8.68109604 10.5101489,8.61415929 10.4772545,8.52032271 C10.4443602,8.42648614 10.4663808,8.32181578 10.534155,8.24985781 L10.534155,8.24985781 L12.3248589,6.346596 C12.3806855,6.28586333 12.4619192,6.25624974 12.5429973,6.267074 Z M6.94549336,2.84394125 C8.75804725,2.40689367 10.6600575,3.02058039 11.8927272,4.44017438 C12.129813,4.71241272 12.1048751,5.12845162 11.8370268,5.36942326 C11.5691785,5.61039491 11.1598485,5.58504825 10.9227626,5.31280991 C10.0060194,4.25738928 8.59160339,3.80140741 7.243944,4.12682608 C5.95004175,4.46032182 4.90595914,5.42941092 4.4620317,6.70892144 C4.44867945,6.74623299 4.45260618,6.78767632 4.47271859,6.82171233 C4.49283099,6.85574833 4.52698107,6.87874199 4.5656604,6.88429116 L4.5656604,6.88429116 L5.53873383,7.00647067 C5.6364379,7.01836418 5.71907803,7.08549043 5.75203508,7.17972927 C5.78499214,7.27396811 5.76257591,7.37904871 5.69417688,7.45095129 L5.69417688,7.45095129 L3.89259203,9.34315374 C3.84379777,9.39431834 3.77668522,9.42319941 3.70657852,9.42320238 C3.69588417,9.42398805 3.68514798,9.42398805 3.67445363,9.42320238 C3.59337512,9.41307125 3.52174691,9.36466658 3.48118611,9.2925967 L3.48118611,9.2925967 L2.19826288,7.00594403 C2.14959233,6.91918169 2.15340501,6.81190073 2.20810761,6.7289336 C2.26141006,6.64576516 2.35684742,6.60094798 2.45370761,6.61360036 L2.45370761,6.61360036 L2.98894982,6.68206301 C3.05210115,6.69031269 3.11173104,6.65050425 3.1293667,6.58832184 C3.65502277,4.73879863 5.10840922,3.31273695 6.94549336,2.84394125 Z" id="Combined-Shape" stroke="#FFFFFF" stroke-width="0.5" fill="#FFFFFF" mask="url(#mask-2)"></path>
        </g>
    </g>
</svg>