<?xml version="1.0" encoding="UTF-8"?>
<svg width="64px" height="64px" viewBox="0 0 64 64" version="1.1" xmlns="http://www.w3.org/2000/svg" xmlns:xlink="http://www.w3.org/1999/xlink">
    <!-- Generator: Sketch 58 (84663) - https://sketch.com -->
    <title>resources/account</title>
    <desc>Created with Sketch.</desc>
    <defs>
        <path d="M57.3333333,35.336 C60.275811,35.3433287 62.6593379,37.7268557 62.6666667,40.6693333 L62.6666667,40.6693333 L62.6666667,51.336 C62.6578805,54.2778716 60.275205,56.6605472 57.3333333,56.6693333 L57.3333333,56.6693333 L6.66666667,56.6693333 C3.72540031,56.6590926 1.3435741,54.2772664 1.33333333,51.336 L1.33333333,51.336 L1.33333333,40.6693333 C1.34211947,37.7274617 3.72479502,35.3447861 6.66666667,35.336 L6.66666667,35.336 Z M54.6666667,46.6666667 L9.33333333,46.6666667 C8.22876383,46.6666667 7.33333333,47.5620972 7.33333333,48.6666667 C7.33333333,49.7712362 8.22876383,50.6666667 9.33333333,50.6666667 L9.33333333,50.6666667 L54.6666667,50.6666667 C55.7712362,50.6666667 56.6666667,49.7712362 56.6666667,48.6666667 C56.6666667,47.5620972 55.7712362,46.6666667 54.6666667,46.6666667 L54.6666667,46.6666667 Z M53.3333333,38.0026667 C51.860574,38.0026667 50.6666667,39.196574 50.6666667,40.6693333 C50.6666667,42.1420927 51.860574,43.336 53.3333333,43.336 C54.8060927,43.336 56,42.1420927 56,40.6693333 C56,39.196574 54.8060927,38.0026667 53.3333333,38.0026667 Z M49.3333333,7.336 C53.0466479,7.44524927 56.266523,9.93499885 57.3066667,13.5013333 L57.3066667,13.5013333 L61.8133333,31.296 C61.8770514,31.5416575 61.7951698,31.8021486 61.6023607,31.9671705 C61.4095515,32.1321924 61.1395425,32.1728783 60.9066667,32.072 C59.7777296,31.5870794 58.56201,31.3366774 57.3333333,31.336 L57.3333333,31.336 L6.66666667,31.336 C5.43798997,31.3366774 4.22227038,31.5870794 3.09333333,32.072 C2.86045748,32.1728783 2.59044847,32.1321924 2.39763935,31.9671705 C2.20483022,31.8021486 2.12294864,31.5416575 2.18666667,31.296 L2.18666667,31.296 L6.696,13.5013333 C7.73584002,9.93591164 10.9543475,7.44638698 14.6666667,7.336 L14.6666667,7.336 Z" id="path-1"></path>
    </defs>
    <g id="resources/account" stroke="none" stroke-width="1" fill="none" fill-rule="evenodd">
        <mask id="mask-2" fill="white">
            <use xlink:href="#path-1"></use>
        </mask>
        <use id="icon" fill="#7C7C7C" xlink:href="#path-1"></use>
    </g>
</svg>