<?xml version="1.0" encoding="UTF-8"?>
<svg width="64px" height="64px" viewBox="0 0 64 64" version="1.1" xmlns="http://www.w3.org/2000/svg" xmlns:xlink="http://www.w3.org/1999/xlink">
    <!-- Generator: Sketch 58 (84663) - https://sketch.com -->
    <title>resources/activity</title>
    <desc>Created with Sketch.</desc>
    <g id="resources/activity" stroke="none" stroke-width="1" fill="none" fill-rule="evenodd">
        <g id="activity" transform="translate(10.000000, 0.000000)" fill="#7C7C7C">
            <path d="M44.8520627,24.7265005 C44.6246162,24.2842245 44.1713884,24.0065757 43.6769395,24.006616 L24.1550723,24.006616 L29.0884726,1.62620747 C29.2269545,1.00692023 28.912753,0.37516423 28.3374481,0.116144064 C27.7621433,-0.142876103 27.0853357,0.0426966805 26.7196994,0.559711942 L0.252959791,37.8870553 C-0.0404114509,38.2935901 -0.0818795841,38.8317894 0.145706191,39.2790594 C0.373291965,39.7263294 0.83124327,40.0066367 1.33015609,40.0040489 L20.8520232,40.0040489 L15.918623,62.3737925 C15.7801411,62.9930798 16.0943426,63.6248358 16.6696474,63.8838559 C17.2449523,64.1428761 17.9217599,63.9573033 18.2873962,63.4402881 L44.7541358,26.1129447 C45.0422739,25.7058601 45.0800814,25.1705831 44.8520627,24.7265005 Z" id="Path"></path>
        </g>
    </g>
</svg>