<?xml version="1.0" encoding="UTF-8"?>
<svg width="64px" height="64px" viewBox="0 0 64 64" version="1.1" xmlns="http://www.w3.org/2000/svg" xmlns:xlink="http://www.w3.org/1999/xlink">
    <!-- Generator: Sketch 58 (84663) - https://sketch.com -->
    <title>resources/network</title>
    <desc>Created with Sketch.</desc>
    <g id="resources/network" stroke="none" stroke-width="1" fill="none" fill-rule="evenodd">
        <path d="M61.3274844,59.6381702 L35.3608908,59.6381702 C34.9881662,59.6381702 34.6860132,59.3350676 34.6860132,58.9611715 L34.6860132,56.7541557 C34.6862772,56.4118803 34.9411679,56.123646 35.2799055,56.082573 C50.0014628,54.3113031 60.8069345,41.3538833 59.9449738,26.5053685 C59.0830132,11.6568537 46.8512977,0.0451685267 32.0242956,0 C31.61397,0 31.2144424,0 30.8149148,0.0270799483 C15.8514502,0.289268249 3.8788735,12.571033 3.95208368,27.5836354 C3.83964354,42.0078623 14.4828169,54.2445931 28.7443901,56.087989 C29.0836007,56.1289492 29.3393471,56.4168425 29.3409819,56.7595717 L29.3409819,58.9611715 C29.3409819,59.3350676 29.0388289,59.6381702 28.6661043,59.6381702 L2.67251561,59.6381702 C1.19652599,59.6381702 0,60.8384567 0,62.3190851 C0,63.7997135 1.19652599,65 2.67251561,65 L61.3274844,65 C62.803474,65 64,63.7997135 64,62.3190851 C64,60.8384567 62.803474,59.6381702 61.3274844,59.6381702 Z M40.5763455,49.2150981 C40.3107551,49.3256928 40.0044766,49.2553176 39.813354,49.0397817 C39.6222315,48.8242457 39.5882495,48.5108965 39.7286992,48.2591759 C40.7567874,46.4214063 41.6718311,44.5222624 42.4687025,42.5723868 C42.5721315,42.3166932 42.8199116,42.1495588 43.094989,42.1499389 L48.4103256,42.1499389 C48.6760603,42.1499389 48.9171011,42.3062343 49.0260523,42.5493688 C49.1350035,42.7925033 49.091582,43.0771425 48.9151341,43.2764654 C46.6178321,45.861822 43.7670236,47.8920815 40.5763455,49.2150981 L40.5763455,49.2150981 Z M25.6615488,36.7799858 C25.3600965,36.7792909 25.0956607,36.5781302 25.0136663,36.2871308 C24.5750112,34.747183 24.2404122,33.1793054 24.0121478,31.5941757 C23.9847766,31.3994923 24.0417644,31.202365 24.1687194,31.0525768 C24.2979243,30.9039967 24.4850778,30.8190189 24.6816265,30.8196811 L39.3696642,30.8196811 C39.5655036,30.818722 39.7519453,30.9038245 39.8798718,31.0525768 C40.0087421,31.2013994 40.0668563,31.3990157 40.0391429,31.5941757 C39.8095785,33.1790716 39.474998,34.7468624 39.0376244,36.2871308 C38.954564,36.5785513 38.6891905,36.7795877 38.3870423,36.7799858 L25.6615488,36.7799858 Z M53.1668635,36.3467067 C53.0665169,36.6075759 52.8166182,36.7797195 52.5378775,36.7799913 L45.2626961,36.7799913 C45.0500718,36.7808468 44.849682,36.680337 44.722794,36.5091864 C44.5941342,36.3468216 44.5464174,36.1344128 44.5932175,35.9323835 C44.9480913,34.4387474 45.218474,32.9261739 45.4030707,31.4019081 C45.4428618,31.0615009 45.730885,30.8051934 46.0725494,30.8061409 L53.7580564,30.8061409 C53.9557789,30.805166 54.1439043,30.8915601 54.2723677,31.0423399 C54.4008311,31.1931196 54.456601,31.3929897 54.4248355,31.5887597 C54.1790466,33.2158727 53.7572328,34.8112722 53.1668635,36.3467067 Z M54.4680277,24.6779569 C54.4940096,24.8725387 54.4371831,25.0691079 54.311456,25.2195559 C54.1825328,25.3688489 53.9954501,25.4547824 53.798549,25.4551523 L46.2858107,25.4551523 C45.9273599,25.4557157 45.6310058,25.1750783 45.610933,24.8160647 C45.4832438,22.3515459 45.1023958,19.9068212 44.474439,17.5207266 C44.421921,17.317556 44.4659177,17.101442 44.5936419,16.9351964 C44.7213661,16.7689508 44.9184898,16.6712228 45.1277206,16.6704162 L51.2502109,16.6704162 C51.4944485,16.6706229 51.7195163,16.8031882 51.8387042,17.0170395 C53.170522,19.3898211 54.0614354,21.9856271 54.4680277,24.6779569 L54.4680277,24.6779569 Z M45.8619875,10.0954047 C46.0897616,10.2734148 46.1800594,10.5766661 46.0869279,10.8508324 C45.9937965,11.1249987 45.737698,11.3098419 45.4489624,11.3112967 L42.5847815,11.3112967 C42.3259155,11.3119624 42.0896704,11.1634502 41.9773916,10.9294671 C41.567066,10.0845728 41.1324447,9.24509436 40.6627299,8.41915594 C40.5169405,8.16343141 40.5527357,7.84248752 40.7512577,7.62540617 C40.9497796,7.40832481 41.2654529,7.3449421 41.5319723,7.46864975 C43.0683253,8.17973782 44.520672,9.0607876 45.8619875,10.0954047 Z M31.492492,6.16339624 C31.6258384,6.00236149 31.8237048,5.90920348 32.0323941,5.90920348 C32.2410834,5.90920348 32.4389498,6.00236149 32.5722963,6.16339624 C33.6549106,7.4646661 34.64707,8.83905401 35.5417581,10.2768404 C35.6710656,10.4854741 35.6775561,10.7480055 35.5587172,10.9628127 C35.4398783,11.1776199 35.2143619,11.3109888 34.9694618,11.3112944 L29.0953265,11.3112944 C28.8504264,11.3109888 28.6249099,11.1776199 28.506071,10.9628127 C28.3872322,10.7480055 28.3937227,10.4854741 28.5230302,10.2768404 C29.4177182,8.83905401 30.4098777,7.4646661 31.492492,6.16339624 L31.492492,6.16339624 Z M38.1359879,16.6731201 C38.4259005,16.6721151 38.6837928,16.8576825 38.7757719,17.1334833 C39.6030724,19.5909259 40.1129357,22.1446144 40.2928969,24.7321168 C40.3070641,24.9193409 40.2424523,25.1039649 40.1147292,25.2412198 C39.9870218,25.378874 39.8081727,25.4573051 39.6207187,25.4578594 L24.44137,25.4578594 C24.2541046,25.4575956 24.0753677,25.3792895 23.9479034,25.2416679 C23.820439,25.1040462 23.7557085,24.9194834 23.7691918,24.7321168 C23.949153,22.1446144 24.4590164,19.5909259 25.2863169,17.1334833 C25.378296,16.8576825 25.6361882,16.6721151 25.9261009,16.6731201 L38.1359879,16.6731201 Z M22.6677915,7.24388618 C22.9350821,7.12872045 23.2458591,7.19832687 23.4389341,7.41660324 C23.6320092,7.63487961 23.6639287,7.9527005 23.5181373,8.20522435 C22.9971318,9.10157064 22.5193184,10.0114569 22.0738991,10.9294671 C21.961115,11.1629961 21.7251882,11.3112952 21.4665092,11.3112952 L18.2324954,11.3112952 C17.9434646,11.3117236 17.6862485,11.1274752 17.5928366,10.8530957 C17.4994246,10.5787161 17.5905573,10.2751265 17.8194702,10.0981127 C19.3084366,8.94439146 20.9376107,7.98528998 22.6677915,7.24388618 L22.6677915,7.24388618 Z M11.9264383,17.0278715 C12.0448725,16.8096071 12.2726055,16.6735762 12.5203307,16.6731236 L18.9235701,16.6731236 C19.1331935,16.6728459 19.3310445,16.7702974 19.4590076,16.9368539 C19.5869706,17.1034104 19.6305155,17.3201595 19.5768517,17.5234346 C18.9486876,19.9094856 18.5678362,22.354232 18.4403577,24.8187727 C18.4203438,25.1767429 18.125588,25.4569879 17.7681795,25.4578595 L10.1528598,25.4578595 C9.95878696,25.4578595 9.77408833,25.3741345 9.64592501,25.2279424 C9.51776169,25.0817503 9.45853981,24.8872862 9.48338114,24.6942049 C9.81939656,22.0094762 10.6476899,19.4102849 11.9264383,17.0278715 L11.9264383,17.0278715 Z M11.5889995,36.7799858 C11.3116841,36.7798005 11.0629474,36.6087943 10.962713,36.3494147 C10.3648596,34.8188513 9.92875058,33.2295841 9.66154884,31.6077157 C9.62899199,31.4112722 9.68430484,31.210413 9.81276768,31.0585905 C9.94123053,30.9067679 10.1298123,30.8193826 10.328328,30.8196884 L17.9625443,30.8196884 C18.3037474,30.8199541 18.5910787,31.0756459 18.6320229,31.4154481 C18.8178995,32.9395207 19.0882694,34.4520225 19.4418762,35.9459234 C19.4897725,36.1473711 19.443118,36.3597294 19.315244,36.5223178 C19.18737,36.6849062 18.9923444,36.7798376 18.7858951,36.7799858 L11.5889995,36.7799858 Z M15.2009448,43.2656335 C15.0269673,43.0655894 14.9850119,42.7822448 15.0935152,42.5401099 C15.2020185,42.297975 15.4411208,42.1413684 15.7057533,42.1391076 L20.9563017,42.1391076 C21.2303952,42.1398283 21.4768301,42.3067749 21.5798886,42.5615548 C22.3790645,44.5205437 23.2968082,46.4287217 24.3279906,48.2754239 C24.4684402,48.5271445 24.4344582,48.8404937 24.2433357,49.0560296 C24.0522132,49.2715656 23.7459346,49.3419408 23.4803442,49.2313461 C20.3062543,47.896569 17.4754055,45.8568038 15.2009448,43.2656335 L15.2009448,43.2656335 Z M27.6186941,43.1112778 C27.5173661,42.9014695 27.5307806,42.6541224 27.6542008,42.4565798 C27.7776209,42.2590372 27.9936803,42.1391076 28.226084,42.1391076 L35.8009111,42.1391076 C36.0333148,42.1391076 36.2493742,42.2590372 36.3727943,42.4565798 C36.4962145,42.6541224 36.509629,42.9014695 36.408301,43.1112778 C35.2710296,45.4324951 33.9645165,47.6663406 32.4994095,49.794609 C32.3891307,49.9556155 32.2068843,50.0518167 32.0121478,50.0518167 C31.8174113,50.0518167 31.6351649,49.9556155 31.5248861,49.794609 C30.0643313,47.6659698 28.7623323,45.4321287 27.6294922,43.1112778 L27.6186941,43.1112778 Z" id="Shape" fill="#7C7C7C"></path>
    </g>
</svg>