<?xml version="1.0" encoding="UTF-8"?>
<svg width="64px" height="64px" viewBox="0 0 64 64" version="1.1" xmlns="http://www.w3.org/2000/svg" xmlns:xlink="http://www.w3.org/1999/xlink">
    <!-- Generator: Sketch 58 (84663) - https://sketch.com -->
    <title>resources/settings</title>
    <desc>Created with Sketch.</desc>
    <g id="resources/settings" stroke="none" stroke-width="1" fill="none" fill-rule="evenodd">
        <path d="M60,25.3333319 L55.0346575,25.3333319 C54.5410161,23.6272001 53.8585732,21.981466 53,20.4266655 L56.5119906,16.9173324 C57.2626905,16.1671134 57.6844698,15.1493093 57.6844698,14.0879992 C57.6844698,13.0266891 57.2626905,12.0088851 56.5119906,11.258666 L52.7386579,7.49066625 C51.1766588,5.92913859 48.644658,5.92913859 47.0826588,7.49066625 L43.5679928,11.0026661 C42.0153595,10.1434637 40.3713207,9.46098177 38.6666602,8.9679995 L38.6666602,4 C38.6666602,1.7908609 36.8757995,0 34.6666609,0 L29.3333285,0 C27.1241898,0 25.3333291,1.7908609 25.3333291,4 L25.3333291,8.9679995 C23.628217,9.46212015 21.9834189,10.144546 20.4293299,11.0026661 L16.9146639,7.49066625 C15.3526647,5.92913859 12.8206639,5.92913859 11.2586648,7.49066625 L7.48533209,11.2613327 C6.73463218,12.0115517 6.31285291,13.0293558 6.31285291,14.0906659 C6.31285291,15.151976 6.73463218,16.16978 7.48533209,16.9199991 L11,20.4319989 C10.1402283,21.9843585 9.45771935,23.6284627 8.96533184,25.3333319 L4,25.3333319 C1.7908607,25.3333319 0,27.1241928 0,29.3333317 L0,34.6666647 C0,36.8758036 1.7908607,38.6666645 4,38.6666645 L8.96533184,38.6666645 C9.45753157,40.3724507 10.1400445,42.017459 11,43.5706643 L7.48266542,47.0879974 C5.92113793,48.6499967 5.92113793,51.1819978 7.48266542,52.7439971 L11.2533315,56.5146635 C12.8412717,58.0148309 15.3240569,58.0148309 16.9119972,56.5146635 L20.4266633,53.0026637 C21.9815597,53.8617268 23.6272474,54.545045 25.3333291,55.039997 L25.3333291,60 C25.3333291,62.2091356 27.1241898,64 29.3333285,64 L34.6666609,64 C36.8757995,64 38.6666602,62.2091356 38.6666602,60 L38.6666602,55.039997 C40.3718017,54.5459599 42.0166089,53.8635303 43.5706594,53.0053304 L47.0853255,56.5173302 C48.6473247,58.0788579 51.1793254,58.0788579 52.7413246,56.5173302 L56.5119906,52.7466637 C58.0735181,51.1846644 58.0735181,48.6526634 56.5119906,47.0906641 L53,43.5786643 C53.8594993,42.0243099 54.5419862,40.3784698 55.0346575,38.6719979 L60,38.6719979 C61.0617805,38.6719988 62.0800051,38.2498394 62.830304,37.4985401 C63.5806029,36.7472407 64.0014051,35.7284544 64,34.6666647 L64,29.3333317 C64,27.1241928 62.2091287,25.3333319 60,25.3333319 Z M31.4666632,44.7999975 C24.1028673,44.7999975 18.1333313,38.8304612 18.1333313,31.4666649 C18.1333313,24.1028687 24.1028673,18.1333323 31.4666632,18.1333323 C38.830459,18.1333323 44.7999951,24.1028687 44.7999951,31.4666649 C44.7911787,38.8268063 38.8268041,44.7911812 31.4666632,44.7999975 Z" id="Shape" fill="#7C7C7C"></path>
    </g>
</svg>