<?xml version="1.0" encoding="UTF-8"?>
<svg width="16px" height="16px" viewBox="0 0 16 16" version="1.1" xmlns="http://www.w3.org/2000/svg" xmlns:xlink="http://www.w3.org/1999/xlink">
    <!-- Generator: Sketch 56.3 (81716) - https://sketch.com -->
    <title>theme/colored/state-error</title>
    <desc>Created with Sketch.</desc>
    <defs>
        <path d="M8,16 C12.418278,16 16,12.418278 16,8 C16,3.581722 12.418278,0 8,0 C3.581722,0 0,3.581722 0,8 C0.00498379363,12.416212 3.583788,15.9950162 8,16 Z" id="path-1"></path>
    </defs>
    <g id="theme/colored/state-error" stroke="none" stroke-width="1" fill="none" fill-rule="evenodd">
        <g id="Icons/icon-16px">
            <g id="Icons/1---interface-essential/navigation-menu-vertical">
                <mask id="mask-2" fill="white">
                    <use xlink:href="#path-1"></use>
                </mask>
                <use id="icon" fill="#FB472E" xlink:href="#path-1"></use>
                <path d="M4.03449742,4.86838556 C4.14126543,4.46048455 4.45981789,4.1419321 4.86771889,4.03516409 C5.2756199,3.92839607 5.70939055,4.05002809 5.99622006,4.34711328 L7.99967192,6.35056591 L9.99702256,4.35331077 C10.2899428,4.05002809 10.7237134,3.92839607 11.1316144,4.03516409 C11.5395154,4.1419321 11.8580679,4.46048455 11.9648359,4.86838556 C12.0716039,5.27628656 11.9499719,5.71005722 11.6528867,5.99688672 L9.64943409,8.00033859 L11.6466892,9.99768923 C11.9499719,10.2906094 12.0716039,10.7243801 11.9648359,11.1322811 C11.8580679,11.5401821 11.5395154,11.8587346 11.1316144,11.9655026 C10.7237134,12.0722706 10.2899428,11.9506386 10.0031133,11.6535534 L7.99966144,9.65010079 L5.99002256,11.6596441 C5.5322472,12.1017783 4.80459032,12.0954552 4.35456756,11.6454324 C3.90454479,11.1954097 3.89822165,10.4677528 4.34644661,10.0037799 L6.34989361,8.00033372 L4.34909441,5.99953452 C4.04841361,5.70666503 3.92814693,5.27469143 4.03449742,4.86838556 Z" id="Path" fill="#FFFFFF" fill-rule="nonzero" mask="url(#mask-2)"></path>
            </g>
        </g>
    </g>
</svg>