<?xml version="1.0" encoding="UTF-8"?>
<svg width="16px" height="16px" viewBox="0 0 16 16" version="1.1" xmlns="http://www.w3.org/2000/svg" xmlns:xlink="http://www.w3.org/1999/xlink">
    <!-- Generator: Sketch 56.3 (81716) - https://sketch.com -->
    <title>theme/colored/state-ok</title>
    <desc>Created with Sketch.</desc>
    <g id="theme/colored/state-ok" stroke="none" stroke-width="1" fill="none" fill-rule="evenodd">
        <g id="Icons/icon-16px">
            <g id="Icons/1---interface-essential/navigation-menu-vertical">
                <path d="M8,0 C3.581722,0 0,3.581722 0,8 C0,12.418278 3.581722,16 8,16 C12.418278,16 16,12.418278 16,8 C15.9948568,3.58385413 12.4161459,0.00514317487 8,0 Z" id="icon" fill="#3EBF4D"></path>
                <path d="M13.0148285,5.77100056 L8.45395393,11.9602813 C8.26438787,12.2117909 7.98171593,12.3765869 7.66945469,12.4176394 C7.35719346,12.458692 7.04153213,12.372558 6.78910274,12.1751946 L3.53025819,9.56971897 C3.0270979,9.16706188 2.94562395,8.43275181 3.34828103,7.92959152 C3.75093812,7.42643123 4.48524819,7.34495728 4.9883592,7.74757494 L7.29946447,9.59657255 L11.1285905,4.40072638 C11.3668145,4.04324807 11.7822168,3.84560614 12.2098707,3.88627015 C12.6375246,3.92693416 13.0082332,4.19932445 13.1748146,4.59529419 C13.339758,4.98737022 13.2781425,5.43779097 13.0148285,5.77100056 Z" id="Path" fill="#FFFFFF" fill-rule="nonzero"></path>
            </g>
        </g>
    </g>
</svg>