<?xml version="1.0" encoding="UTF-8"?>
<svg width="16px" height="16px" viewBox="0 0 16 16" version="1.1" xmlns="http://www.w3.org/2000/svg" xmlns:xlink="http://www.w3.org/1999/xlink">
    <!-- Generator: Sketch 60.1 (88133) - https://sketch.com -->
    <title>logout-white</title>
    <desc>Created with Sketch.</desc>
    <defs>
        <path d="M8.33333333,21.3333333 C9.069713,21.3333333 9.66666667,21.930287 9.66666667,22.6666667 L9.66666667,22.6666667 L9.66666667,24.6666667 C9.66666667,25.0348565 9.36818983,25.3333333 9,25.3333333 C8.63181017,25.3333333 8.33333333,25.0348565 8.33333333,24.6666667 L8.33333333,24.6666667 L8.33333333,23 C8.33333333,22.8159051 8.18409492,22.6666667 8,22.6666667 L8,22.6666667 L1.66666667,22.6666667 C1.48257175,22.6666667 1.33333333,22.8159051 1.33333333,23 L1.33333333,23 L1.33333333,35 C1.33333333,35.1840949 1.48257175,35.3333333 1.66666667,35.3333333 L1.66666667,35.3333333 L8,35.3333333 C8.18409492,35.3333333 8.33333333,35.1840949 8.33333333,35 L8.33333333,35 L8.33333333,33.3333333 C8.33333333,32.9651435 8.63181017,32.6666667 9,32.6666667 C9.36818983,32.6666667 9.66666667,32.9651435 9.66666667,33.3333333 L9.66666667,33.3333333 L9.66666667,35.3333333 C9.66666667,36.069713 9.069713,36.6666667 8.33333333,36.6666667 L8.33333333,36.6666667 L1.33333333,36.6666667 C0.596953667,36.6666667 1.95399252e-14,36.069713 1.95399252e-14,35.3333333 L1.95399252e-14,35.3333333 L1.95399252e-14,22.6666667 C1.95399252e-14,21.930287 0.596953667,21.3333333 1.33333333,21.3333333 L1.33333333,21.3333333 Z M11.0191171,26.07926 C11.2359073,25.9634062 11.4988604,25.9762448 11.7033333,26.1126667 L11.7033333,26.1126667 L15.7033333,28.7786667 C15.8887701,28.9023155 16.0001496,29.1104526 16.0001496,29.3333333 C16.0001496,29.556214 15.8887701,29.7643512 15.7033333,29.888 L15.7033333,29.888 L11.7033333,32.5546667 C11.5937688,32.6277241 11.4650215,32.6666667 11.3333333,32.6666667 C10.9672432,32.6616461 10.6716872,32.3660901 10.6666666,32 L10.6666666,32 L10.6666666,30.3333333 L4.66666664,30.3333333 C4.30940107,30.3333333 3.97927404,30.1427344 3.80064124,29.8333333 C3.62200844,29.5239323 3.62200844,29.1427344 3.80064124,28.8333333 C3.97927404,28.5239322 4.30940107,28.3333333 4.66666664,28.3333333 L4.66666664,28.3333333 L10.6666666,28.3333333 L10.6666666,26.6666667 C10.6668756,26.4208617 10.8023268,26.1951138 11.0191171,26.07926 Z" id="path-1"></path>
    </defs>
    <g id="Desktop" stroke="none" stroke-width="1" fill="none" fill-rule="evenodd">
        <g id="Drive-desktop---Tabs----Drive-Copy-2" transform="translate(-1317.000000, -525.000000)">
            <g id="App" transform="translate(553.000000, 345.000000)">
                <g id="Box" transform="translate(20.000000, 159.000000)">
                    <g id="Buttons/Secondary/Icon--Copy" transform="translate(707.000000, 0.000000)">
                        <g id="Icons/Streamline/move-down-1" transform="translate(37.000000, 0.000000)">
                            <mask id="mask-2" fill="white">
                                <use xlink:href="#path-1"></use>
                            </mask>
                            <use id="logout-white" fill="#FFFFFF" xlink:href="#path-1"></use>
                        </g>
                    </g>
                </g>
            </g>
        </g>
    </g>
</svg>