<?xml version="1.0" encoding="UTF-8"?>
<svg width="16px" height="16px" viewBox="0 0 16 16" version="1.1" xmlns="http://www.w3.org/2000/svg" xmlns:xlink="http://www.w3.org/1999/xlink">
    <!-- Generator: Sketch 60 (88103) - https://sketch.com -->
    <title>theme/white/state-offline</title>
    <desc>Created with Sketch.</desc>
    <g id="theme/white/state-offline" stroke="none" stroke-width="1" fill="none" fill-rule="evenodd">
        <path d="M8,0 C12.416298,0.00477656508 15.9952234,3.58370203 16,8 C16,12.418278 12.418278,16 8,16 C3.581722,16 0,12.418278 0,8 C0,3.581722 3.581722,0 8,0 Z M8,1.33333333 C4.31810167,1.33333333 1.33333333,4.31810167 1.33333333,8 C1.33333333,11.6818983 4.31810167,14.6666667 8,14.6666667 C11.680223,14.6626251 14.6626251,11.680223 14.6666667,8 C14.6666667,4.31810167 11.6818983,1.33333333 8,1.33333333 Z M6.52133333,4.76133333 C7.06257239,4.76133333 7.50133333,5.20009428 7.50133333,5.74133333 L7.50133333,10.9653333 C7.50133333,11.5065724 7.06257239,11.9453333 6.52133333,11.9453333 L6.214,11.9453333 C5.67276095,11.9453333 5.234,11.5065724 5.234,10.9653333 L5.234,5.74133333 C5.234,5.20009428 5.67276095,4.76133333 6.214,4.76133333 L6.52133333,4.76133333 Z M9.80466667,4.734 C10.3459057,4.734 10.7846667,5.17276095 10.7846667,5.714 L10.7846667,10.938 C10.7846667,11.4792391 10.3459057,11.918 9.80466667,11.918 L9.46066667,11.918 C8.91942761,11.918 8.48066667,11.4792391 8.48066667,10.938 L8.48066667,5.714 C8.48066667,5.17276095 8.91942761,4.734 9.46066667,4.734 L9.80466667,4.734 Z" id="Combined-Shape" fill="#FFFFFF" fill-rule="nonzero"></path>
    </g>
</svg>