<?xml version="1.0" encoding="UTF-8"?>
<svg width="16px" height="16px" viewBox="0 0 16 16" version="1.1" xmlns="http://www.w3.org/2000/svg" xmlns:xlink="http://www.w3.org/1999/xlink">
    <!-- Generator: Sketch 56.3 (81716) - https://sketch.com -->
    <title>theme/white/state-error</title>
    <desc>Created with Sketch.</desc>
    <g id="theme/white/state-error" stroke="none" stroke-width="1" fill="none" fill-rule="evenodd">
        <path d="M11.7773333,4.222 C11.9336207,4.3781728 12.0214316,4.59005732 12.0214316,4.811 C12.0214316,5.03194268 11.9336207,5.2438272 11.7773333,5.4 L9.29733333,7.88133333 C9.2659861,7.91260142 9.24836874,7.95505758 9.24836874,7.99933333 C9.24836874,8.04360909 9.2659861,8.08606525 9.29733333,8.11733333 L11.7786667,10.5986667 C12.1038393,10.9242737 12.1038393,11.4517263 11.7786667,11.7773333 C11.4499915,12.0950053 10.9286751,12.0950053 10.6,11.7773333 L8.11733333,9.29733333 C8.08617926,9.26602638 8.04383341,9.24842541 7.99966667,9.24842541 C7.95549992,9.24842541 7.91315407,9.26602638 7.882,9.29733333 L5.40066667,11.7786667 C5.07241513,12.0973847 4.55025154,12.0973847 4.222,11.7786667 C3.89682735,11.4530597 3.89682735,10.925607 4.222,10.6 L6.70333333,8.11733333 C6.73468057,8.08606525 6.75229793,8.04360909 6.75229793,7.99933333 C6.75229793,7.95505758 6.73468057,7.91260142 6.70333333,7.88133333 L4.222,5.4 C4.00111,5.19175509 3.91093889,4.87986511 3.98662704,4.58587592 C4.06231519,4.29188674 4.29188674,4.06231519 4.58587592,3.98662704 C4.87986511,3.91093889 5.19175509,4.00111 5.4,4.222 L7.882,6.70333333 C7.94704496,6.76817515 8.05228837,6.76817515 8.11733333,6.70333333 L10.5986667,4.222 C10.7548664,4.06550854 10.9668938,3.97756798 11.188,3.97756798 C11.4091062,3.97756798 11.6211336,4.06550854 11.7773333,4.222 Z M8,0 C12.416298,0.00477656508 15.9952234,3.58370203 16,8 C16,12.418278 12.418278,16 8,16 C3.581722,16 0,12.418278 0,8 C0,3.581722 3.581722,0 8,0 Z M8,14.6666667 C11.680223,14.6626251 14.6626251,11.680223 14.6666667,8 C14.6666667,4.31810167 11.6818983,1.33333333 8,1.33333333 C4.31810167,1.33333333 1.33333333,4.31810167 1.33333333,8 C1.33333333,11.6818983 4.31810167,14.6666667 8,14.6666667 Z" id="Combined-Shape" fill="#FFFFFF" fill-rule="nonzero"></path>
    </g>
</svg>