<?xml version="1.0" encoding="UTF-8"?>
<svg width="16px" height="16px" viewBox="0 0 16 16" version="1.1" xmlns="http://www.w3.org/2000/svg" xmlns:xlink="http://www.w3.org/1999/xlink">
    <!-- Generator: Sketch 56.3 (81716) - https://sketch.com -->
    <title>theme/white/state-warning</title>
    <desc>Created with Sketch.</desc>
    <g id="theme/white/state-warning" stroke="none" stroke-width="1" fill="none" fill-rule="evenodd">
        <path d="M8,0 C12.416298,0.00477656508 15.9952234,3.58370203 16,8 C16,12.418278 12.418278,16 8,16 C3.581722,16 0,12.418278 0,8 C0,3.581722 3.581722,0 8,0 Z M8,14.6666667 C11.680223,14.6626251 14.6626251,11.680223 14.6666667,8 C14.6666667,4.31810167 11.6818983,1.33333333 8,1.33333333 C4.31810167,1.33333333 1.33333333,4.31810167 1.33333333,8 C1.33333333,11.6818983 4.31810167,14.6666667 8,14.6666667 Z M7.00066489,12.0196491 C6.99096005,11.7556822 7.08782701,11.498904 7.26946015,11.3071174 C7.4510933,11.1153309 7.70222833,11.0046536 7.96633253,11 L7.98432633,11 C8.53081881,11.0010507 8.97891178,11.4335502 8.99931033,11.9796628 C9.00919978,12.2436796 8.91239455,12.500563 8.73072238,12.6923908 C8.54905021,12.8842185 8.29780679,12.9948399 8.03364269,12.9993119 L8.01564889,12.9993119 C7.4694345,12.9975751 7.02173918,12.5654595 7.00066489,12.0196491 Z M8,3 C8.55228475,3 9,3.44771525 9,4 L9,9 C9,9.55228475 8.55228475,10 8,10 C7.44771525,10 7,9.55228475 7,9 L7,4 C7,3.44771525 7.44771525,3 8,3 Z" id="Combined-Shape" fill="#FFFFFF" fill-rule="nonzero"></path>
    </g>
</svg>