<?xml version="1.0" encoding="UTF-8"?>
<svg width="16px" height="16px" viewBox="0 0 16 16" version="1.1" xmlns="http://www.w3.org/2000/svg" xmlns:xlink="http://www.w3.org/1999/xlink">
    <!-- Generator: Sketch 63.1 (92452) - https://sketch.com -->
    <title>icons/theme/black/state-ok</title>
    <desc>Created with Sketch.</desc>
    <defs>
        <path d="M8,0 C12.418278,0 16,3.581722 16,8 C16,12.418278 12.418278,16 8,16 C3.583788,15.9950162 0.00498379363,12.416212 5.68434189e-14,8 C5.68434189e-14,5.0393493 1.60827437,2.45433121 3.9988403,1.07092854 L4,12.7072 L7.1616,12.7072 L7.1616,10.64 L8.31569515,9.5271859 L9.9584,12.7072 L13.4544,12.7072 L10.371311,7.55855154 L13.272,4.80313304 L9.472,4.80313304 L7.1616,7.41753304 L7.16094308,0.0434744369 C7.43670487,0.0147328811 7.71663191,0 8,0 Z" id="path-1"></path>
    </defs>
    <g id="icons/theme/black/state-ok" stroke="none" stroke-width="1" fill="none" fill-rule="evenodd">
        <mask id="mask-2" fill="white">
            <use xlink:href="#path-1"></use>
        </mask>
        <use id="Combined-Shape" fill="#000000" xlink:href="#path-1"></use>
        <path d="M8,3 C10.7601862,3.00298535 12.9970146,5.23981377 13,8 C13,10.7614237 10.7614237,13 8,13 C5.23857625,13 3,10.7614237 3,8 C3,5.23857625 5.23857625,3 8,3 Z M10.3812586,5.00610065 C10.2404407,5.02755784 10.1138852,5.10435445 10.029457,5.21958146 L7.48352392,8.69054323 L5.86459583,7.38936428 C5.63241237,7.21070027 5.30064314,7.25125594 5.11789133,7.48064188 C4.93513952,7.71002782 4.96845416,8.0440856 5.19287175,8.23249716 L7.24844198,9.88422598 C7.36318714,9.97438249 7.50919253,10.014423 7.65362515,9.99534332 C7.79805778,9.97626366 7.92879369,9.89966546 8.01643363,9.78277374 L10.8958651,5.85980986 C10.9802186,5.74436218 11.015431,5.59996771 10.9937474,5.45842687 C10.9720638,5.31688602 10.8952627,5.18980739 10.780258,5.10517787 C10.6656108,5.02028505 10.5220766,4.98464346 10.3812586,5.00610065 Z" id="Combined-Shape" fill="#000000" fill-rule="nonzero" mask="url(#mask-2)"></path>
    </g>
</svg>