<?xml version="1.0" encoding="UTF-8"?>
<svg width="16px" height="16px" viewBox="0 0 16 16" version="1.1" xmlns="http://www.w3.org/2000/svg" xmlns:xlink="http://www.w3.org/1999/xlink">
    <!-- Generator: Sketch 63.1 (92452) - https://sketch.com -->
    <title>icons/theme/black/state-information</title>
    <desc>Created with Sketch.</desc>
    <g id="icons/theme/black/state-information" stroke="none" stroke-width="1" fill="none" fill-rule="evenodd">
        <path d="M8,0 C12.416298,0.00477656508 15.9952234,3.58370203 16,8 C16,12.418278 12.418278,16 8,16 C3.581722,16 0,12.418278 0,8 C0,3.581722 3.581722,0 8,0 Z M8,1.33333333 C4.31810167,1.33333333 1.33333333,4.31810167 1.33333333,8 C1.33333333,11.6818983 4.31810167,14.6666667 8,14.6666667 C11.680223,14.6626251 14.6626251,11.680223 14.6666667,8 C14.6666667,4.31810167 11.6818983,1.33333333 8,1.33333333 Z M7.83333333,6.4 C8.22222417,6.4 8.55555417,6.5388875 8.83333333,6.81666667 C9.1111125,7.09444583 9.25,7.43333133 9.25,7.83333333 L9.25,7.83333333 L9.25,11.2 C9.25,11.2555558 9.2666665,11.2999998 9.3,11.3333333 C9.3333335,11.3666668 9.3777775,11.3833333 9.43333333,11.3833333 L9.43333333,11.3833333 L9.96666667,11.3833333 C10.1555565,11.3833333 10.3194438,11.4527771 10.4583333,11.5916667 C10.5972229,11.7305563 10.6666667,11.9 10.6666667,12.1 C10.6666667,12.2888898 10.5972229,12.4527771 10.4583333,12.5916667 C10.3194438,12.7305563 10.1555565,12.8 9.96666667,12.8 L9.96666667,12.8 L7.11666667,12.8 C6.91666567,12.8 6.74722292,12.7305563 6.60833333,12.5916667 C6.46944375,12.4527771 6.4,12.2888898 6.4,12.1 C6.4,11.9 6.46944375,11.7305563 6.60833333,11.5916667 C6.74722292,11.4527771 6.91666567,11.3833333 7.11666667,11.3833333 L7.11666667,11.3833333 L7.65,11.3833333 C7.69444467,11.3833333 7.73611092,11.3666668 7.775,11.3333333 C7.81388908,11.2999998 7.83333333,11.2555558 7.83333333,11.2 L7.83333333,11.2 L7.83333333,8 C7.83333333,7.95555533 7.81388908,7.91666683 7.775,7.88333333 C7.73611092,7.84999983 7.69444467,7.83333333 7.65,7.83333333 L7.65,7.83333333 L7.11666667,7.83333333 C6.91666567,7.83333333 6.74722292,7.76388958 6.60833333,7.625 C6.46944375,7.48611042 6.4,7.31666767 6.4,7.11666667 C6.4,6.91666567 6.46944375,6.74722292 6.60833333,6.60833333 C6.74722292,6.46944375 6.91666567,6.4 7.11666667,6.4 L7.11666667,6.4 Z M8.21333333,3.2 C8.50222367,3.2 8.75222117,3.3055545 8.96333333,3.51666667 C9.1744455,3.72777883 9.28,3.97777633 9.28,4.26666667 C9.28,4.56666817 9.1744455,4.81944342 8.96333333,5.025 C8.75222117,5.23055658 8.50222367,5.33333333 8.21333333,5.33333333 C7.91333183,5.33333333 7.66055658,5.23055658 7.455,5.025 C7.24944342,4.81944342 7.14666667,4.56666817 7.14666667,4.26666667 C7.14666667,3.97777633 7.24944342,3.72777883 7.455,3.51666667 C7.66055658,3.3055545 7.91333183,3.2 8.21333333,3.2 Z" id="Combined-Shape" stroke="#FFFFFF" stroke-width="0.2" fill="#FFFFFF" fill-rule="nonzero"></path>
    </g>
</svg>