<?xml version="1.0" encoding="UTF-8"?>
<svg width="15px" height="14px" viewBox="0 0 15 14" version="1.1" xmlns="http://www.w3.org/2000/svg" xmlns:xlink="http://www.w3.org/1999/xlink">
    <!-- Generator: Sketch 60.1 (88133) - https://sketch.com -->
    <title>add-dark</title>
    <desc>Created with Sketch.</desc>
    <g id="Desktop" stroke="none" stroke-width="1" fill="none" fill-rule="evenodd">
        <g id="Drive-desktop---Tabs----Activite" transform="translate(-1315.000000, -343.000000)" fill="#666666">
            <g id="App" transform="translate(560.000000, 300.000000)">
                <g id="Title-Bar">
                    <g id="Toolbar-Button">
                        <g transform="translate(725.000000, 39.000000)">
                            <g id="Icon" transform="translate(0.500000, 4.000000)">
                                <g id="add-circle-alternate" transform="translate(0.250000, 0.250000)">
                                    <path d="M31.2093307,7.9597277 L35.2988032,7.9597277 C35.4323822,7.9597277 35.5406693,8.06800709 35.5406693,8.2015765 L35.5406693,12.290756 C35.5406693,12.958603 36.0821051,13.5 36.75,13.5 C37.4178949,13.5 37.9593307,12.958603 37.9593307,12.290756 L37.9593307,8.2015765 C37.9593307,8.06800709 38.0676178,7.9597277 38.2011968,7.9597277 L42.2906693,7.9597277 C42.9585642,7.9597277 43.5,7.41833072 43.5,6.7504837 C43.5,6.08263668 42.9585642,5.5412397 42.2906693,5.5412397 L38.2011968,5.5412397 C38.0676178,5.5412397 37.9593307,5.4329603 37.9593307,5.2993909 L37.9593307,1.209244 C37.9593307,0.541396979 37.4178949,0 36.75,0 C36.0821051,0 35.5406693,0.541396979 35.5406693,1.209244 L35.5406693,5.2993909 C35.5406693,5.4329603 35.4323822,5.5412397 35.2988032,5.5412397 L31.2093307,5.5412397 C30.5414358,5.5412397 30,6.08263668 30,6.7504837 C30,7.41833072 30.5414358,7.9597277 31.2093307,7.9597277 L31.2093307,7.9597277 Z" id="add-dark"></path>
                                </g>
                            </g>
                        </g>
                    </g>
                </g>
            </g>
        </g>
    </g>
</svg>