<?xml version="1.0" encoding="UTF-8"?>
<svg width="16px" height="16px" viewBox="0 0 16 16" version="1.1" xmlns="http://www.w3.org/2000/svg" xmlns:xlink="http://www.w3.org/1999/xlink">
    <!-- Generator: Sketch 60.1 (88133) - https://sketch.com -->
    <title>delete-dark</title>
    <desc>Created with Sketch.</desc>
    <g id="Desktop" stroke="none" stroke-width="1" fill="none" fill-rule="evenodd">
        <g id="Drive-desktop---Tabs----Drive-Copy-2" transform="translate(-1280.000000, -504.000000)" fill="#666666">
            <g id="App" transform="translate(553.000000, 345.000000)">
                <g id="Box" transform="translate(20.000000, 159.000000)">
                    <g id="Buttons/Secondary/Icon--Copy" transform="translate(707.000000, 0.000000)">
                        <g id="Icons/Streamline/move-down-1-Copy">
                            <path d="M8,16 C12.418278,16 16,12.418278 16,8 C16,3.581722 12.418278,0 8,0 C3.581722,0 0,3.581722 0,8 C0.00498379363,12.416212 3.583788,15.9950162 8,16 Z M4.55652174,6.03269565 C4.42589423,5.90221339 4.35249624,5.72515426 4.35249624,5.54052174 C4.35249624,5.35588922 4.42589423,5.17883009 4.55652174,5.04834783 L5.04834783,4.55652174 C5.17883009,4.42589423 5.35588922,4.35249624 5.54052174,4.35249624 C5.72515426,4.35249624 5.90221339,4.42589423 6.03269565,4.55652174 L7.87686957,6.4 C7.90949713,6.43271016 7.95379921,6.45109349 8,6.45109349 C8.04620079,6.45109349 8.09050287,6.43271016 8.12313043,6.4 L9.96730435,4.55652174 C10.0977866,4.42589423 10.2748457,4.35249624 10.4594783,4.35249624 C10.6441108,4.35249624 10.8211699,4.42589423 10.9516522,4.55652174 L11.4434783,5.04834783 C11.5741058,5.17883009 11.6475038,5.35588922 11.6475038,5.54052174 C11.6475038,5.72515426 11.5741058,5.90221339 11.4434783,6.03269565 L9.6,7.87686957 C9.56728984,7.90949713 9.54890651,7.95379921 9.54890651,8 C9.54890651,8.04620079 9.56728984,8.09050287 9.6,8.12313043 L11.4448696,9.96730435 C11.5754971,10.0977866 11.6488951,10.2748457 11.6488951,10.4594783 C11.6488951,10.6441108 11.5754971,10.8211699 11.4448696,10.9516522 L10.9530435,11.4434783 C10.8225612,11.5741058 10.6455021,11.6475038 10.4608696,11.6475038 C10.276237,11.6475038 10.0991779,11.5741058 9.96869565,11.4434783 L8.12313043,9.6 C8.05486363,9.53263667 7.94513637,9.53263667 7.87686957,9.6 L6.03269565,11.4434783 C5.90221339,11.5741058 5.72515426,11.6475038 5.54052174,11.6475038 C5.35588922,11.6475038 5.17883009,11.5741058 5.04834783,11.4434783 L4.55652174,10.9516522 C4.42589423,10.8211699 4.35249624,10.6441108 4.35249624,10.4594783 C4.35249624,10.2748457 4.42589423,10.0977866 4.55652174,9.96730435 L6.4,8.12313043 C6.43271016,8.09050287 6.45109349,8.04620079 6.45109349,8 C6.45109349,7.95379921 6.43271016,7.90949713 6.4,7.87686957 L4.55652174,6.03269565 Z" id="delete-dark"></path>
                        </g>
                    </g>
                </g>
            </g>
        </g>
    </g>
</svg>