<?xml version="1.0" encoding="UTF-8"?>
<svg width="24px" height="24px" viewBox="0 0 24 24" version="1.1" xmlns="http://www.w3.org/2000/svg" xmlns:xlink="http://www.w3.org/1999/xlink">
    <!-- Generator: Sketch 61.2 (89653) - https://sketch.com -->
    <title>black/login</title>
    <desc>Created with Sketch.</desc>
    <g id="black/login" stroke="none" stroke-width="1" fill="none" fill-rule="evenodd">
        <path d="M21,0.5 C22.1045695,0.5 23,1.3954305 23,2.5 L23,2.5 L23,21.5 C23,22.6045695 22.1045695,23.5 21,23.5 L21,23.5 L10.5,23.5 C9.3954305,23.5 8.5,22.6045695 8.5,21.5 L8.5,21.5 L8.5,18.5 C8.5,17.9477153 8.94771525,17.5 9.5,17.5 C10.0522847,17.5 10.5,17.9477153 10.5,18.5 L10.5,18.5 L10.5,21 C10.5,21.2761424 10.7238576,21.5 11,21.5 L11,21.5 L20.5,21.5 C20.7761424,21.5 21,21.2761424 21,21 L21,21 L21,3 C21,2.72385763 20.7761424,2.5 20.5,2.5 L20.5,2.5 L11,2.5 C10.7238576,2.5 10.5,2.72385763 10.5,3 L10.5,3 L10.5,5.5 C10.5,6.05228475 10.0522847,6.5 9.5,6.5 C8.94771525,6.5 8.5,6.05228475 8.5,5.5 L8.5,5.5 L8.5,2.5 C8.5,1.3954305 9.3954305,0.5 10.5,0.5 L10.5,0.5 Z M13.0547756,7.668 L19.0547756,11.668 C19.3329307,11.8534732 19.5,12.1656789 19.5,12.5 C19.5,12.8343211 19.3329307,13.1465268 19.0547756,13.332 L13.0547756,17.332 C12.7470399,17.534289 12.3537064,17.5534386 12.0277756,17.382 C11.7025701,17.2078879 11.4996275,16.8688816 11.4997756,16.5 L11.4997756,14 L2.49977559,14 C1.67134848,14 0.99977563,13.3284271 0.99977563,12.5 C0.99977563,11.6715729 1.67134848,11 2.49977559,11 L11.4997756,11 L11.4997756,8.5 C11.4997204,8.13111315 11.702754,7.79215395 12.0280105,7.61812603 C12.3532671,7.44409811 12.7479169,7.46326779 13.0547756,7.668 Z" id="Combined-Shape" fill="#666666" fill-rule="nonzero"></path>
    </g>
</svg>