<?xml version="1.0" encoding="UTF-8"?>
<svg width="16px" height="16px" viewBox="0 0 16 16" version="1.1" xmlns="http://www.w3.org/2000/svg" xmlns:xlink="http://www.w3.org/1999/xlink">
    <!-- Generator: Sketch 60.1 (88133) - https://sketch.com -->
    <title>logout-dark</title>
    <desc>Created with Sketch.</desc>
    <g id="Desktop" stroke="none" stroke-width="1" fill="none" fill-rule="evenodd">
        <g id="Drive-desktop---Tabs----Drive-Copy-2" transform="translate(-1317.000000, -504.000000)" fill="#666666">
            <g id="App" transform="translate(553.000000, 345.000000)">
                <g id="Box" transform="translate(20.000000, 159.000000)">
                    <g id="Buttons/Secondary/Icon--Copy" transform="translate(707.000000, 0.000000)">
                        <g id="Icons/Streamline/move-down-1" transform="translate(37.000000, 0.000000)">
                            <path d="M8.33333333,0.333333333 C9.069713,0.333333333 9.66666667,0.930287 9.66666667,1.66666667 L9.66666667,1.66666667 L9.66666667,3.66666667 C9.66666667,4.0348565 9.36818983,4.33333333 9,4.33333333 C8.63181017,4.33333333 8.33333333,4.0348565 8.33333333,3.66666667 L8.33333333,3.66666667 L8.33333333,2 C8.33333333,1.81590508 8.18409492,1.66666667 8,1.66666667 L8,1.66666667 L1.66666667,1.66666667 C1.48257175,1.66666667 1.33333333,1.81590508 1.33333333,2 L1.33333333,2 L1.33333333,14 C1.33333333,14.1840949 1.48257175,14.3333333 1.66666667,14.3333333 L1.66666667,14.3333333 L8,14.3333333 C8.18409492,14.3333333 8.33333333,14.1840949 8.33333333,14 L8.33333333,14 L8.33333333,12.3333333 C8.33333333,11.9651435 8.63181017,11.6666667 9,11.6666667 C9.36818983,11.6666667 9.66666667,11.9651435 9.66666667,12.3333333 L9.66666667,12.3333333 L9.66666667,14.3333333 C9.66666667,15.069713 9.069713,15.6666667 8.33333333,15.6666667 L8.33333333,15.6666667 L1.33333333,15.6666667 C0.596953667,15.6666667 1.95399252e-14,15.069713 1.95399252e-14,14.3333333 L1.95399252e-14,14.3333333 L1.95399252e-14,1.66666667 C1.95399252e-14,0.930287 0.596953667,0.333333333 1.33333333,0.333333333 L1.33333333,0.333333333 Z M11.0191171,5.07925999 C11.2359073,4.96340617 11.4988604,4.97624478 11.7033333,5.11266667 L11.7033333,5.11266667 L15.7033333,7.77866667 C15.8887701,7.90231545 16.0001496,8.11045262 16.0001496,8.33333333 C16.0001496,8.55621404 15.8887701,8.76435121 15.7033333,8.888 L15.7033333,8.888 L11.7033333,11.5546667 C11.5937688,11.6277241 11.4650215,11.6666667 11.3333333,11.6666667 C10.9672432,11.6616461 10.6716872,11.3660901 10.6666666,11 L10.6666666,11 L10.6666666,9.33333333 L4.66666664,9.33333333 C4.30940107,9.33333334 3.97927404,9.14273442 3.80064124,8.83333334 C3.62200844,8.52393226 3.62200844,8.14273441 3.80064124,7.83333332 C3.97927404,7.52393224 4.30940107,7.33333332 4.66666664,7.33333333 L4.66666664,7.33333333 L10.6666666,7.33333333 L10.6666666,5.66666667 C10.6668756,5.42086172 10.8023268,5.19511381 11.0191171,5.07925999 Z" id="logout-dark"></path>
                        </g>
                    </g>
                </g>
            </g>
        </g>
    </g>
</svg>