<?xml version="1.0" encoding="UTF-8"?>
<svg width="16px" height="16px" viewBox="0 0 16 16" version="1.1" xmlns="http://www.w3.org/2000/svg" xmlns:xlink="http://www.w3.org/1999/xlink">
    <!-- Generator: Sketch 56.3 (81716) - https://sketch.com -->
    <title>theme/black/state-sync</title>
    <desc>Created with Sketch.</desc>
    <g id="theme/black/state-sync" stroke="none" stroke-width="1" fill="none" fill-rule="evenodd">
        <g id="state-sync" fill="#000000" fill-rule="nonzero">
            <path d="M5.22179279,6.93318009 L5.8663558,7.01752088 C6.04516638,7.04020396 6.19336818,7.16565275 6.25109791,7.3376782 C6.30748443,7.50570107 6.26919013,7.69277173 6.15004785,7.82329018 L4.63640335,9.48000716 C4.54846011,9.57610527 4.42537544,9.63130349 4.3147891,9.63057977 C4.28221115,9.63224021 4.28221115,9.63224021 4.2364357,9.62921629 C4.08760931,9.60983673 3.95816257,9.5186764 3.88622832,9.38547892 L2.80844039,7.38356943 C2.72481075,7.22821029 2.73130091,7.03790124 2.82389278,6.89159256 C2.91987381,6.73552655 3.09614042,6.64926689 3.27620325,6.67377895 L3.60279065,6.71731224 C4.09339949,5.07001817 5.35908298,3.80348706 6.95578428,3.37890127 C8.57256695,2.97264411 10.2684532,3.54286375 11.3647003,4.85850544 C11.6486324,5.19826352 11.6190326,5.7128695 11.2970626,6.01472842 C10.9669214,6.32424815 10.4572065,6.29135647 10.165964,5.9428503 C9.45718685,5.09249741 8.36788883,4.72616299 7.33036976,4.98644918 C6.376239,5.24341199 5.59505864,5.96644172 5.22179279,6.93318009 Z M10.1297501,8.99018394 C9.95175245,8.96693996 9.80439812,8.84186014 9.74677954,8.67057277 C9.69050148,8.50327047 9.72811572,8.31695078 9.84597375,8.1865486 L11.3484152,6.5224563 C11.4503086,6.40694132 11.6016297,6.34945476 11.7493223,6.37004024 C11.8983635,6.38815573 12.0285949,6.47827604 12.1018863,6.61149673 L13.1898902,8.60698962 C13.2746085,8.76168323 13.2694853,8.95196918 13.1763615,9.10165148 C13.089375,9.23940163 12.9411988,9.32275574 12.8009568,9.32123284 C12.7690795,9.32283491 12.7690795,9.32283491 12.724489,9.31994565 L12.3864428,9.27696444 C11.897585,10.9275 10.6303417,12.196877 9.03121466,12.6210841 C7.41441288,13.027309 5.71850569,12.4573301 4.62551497,11.1462048 C4.43398961,10.9272051 4.37010739,10.6187263 4.45665961,10.3376817 C4.54429248,10.0531281 4.77342675,9.8384358 5.05782478,9.7795611 C5.34472774,9.72016784 5.63853345,9.82962646 5.82057644,10.0580218 C6.52993735,10.908768 7.62002699,11.2751524 8.65453336,11.0153663 C9.60992674,10.7598187 10.3922936,10.0363387 10.7645446,9.0705927 L10.1297501,8.99018394 Z M8,0 C12.416298,0.00477656508 15.9952234,3.58370203 16,8 C16,12.418278 12.418278,16 8,16 C3.581722,16 0,12.418278 0,8 C0,3.581722 3.581722,0 8,0 Z M8,14.6666667 C11.680223,14.6626251 14.6626251,11.680223 14.6666667,8 C14.6666667,4.31810167 11.6818983,1.33333333 8,1.33333333 C4.31810167,1.33333333 1.33333333,4.31810167 1.33333333,8 C1.33333333,11.6818983 4.31810167,14.6666667 8,14.6666667 Z" id="Combined-Shape"></path>
        </g>
    </g>
</svg>