<?xml version="1.0" encoding="UTF-8"?>
<svg width="16px" height="16px" viewBox="0 0 16 16" version="1.1" xmlns="http://www.w3.org/2000/svg" xmlns:xlink="http://www.w3.org/1999/xlink">
    <title>icons/theme/black/state-download</title>
    <defs>
        <path d="M6.10416667,2.50000809 C6.41157966,2.49862658 6.69322243,2.67421798 6.83108333,2.95321561 L6.83108333,2.95321561 L7.34404167,3.99821406 C7.38995944,4.09125768 7.48367163,4.15001035 7.58616667,4.15001384 L7.58616667,4.15001384 L13.6875,4.15001384 C14.1362314,4.15001384 14.5,4.51937837 14.5,4.97501262 L14.5,4.97501262 L14.5,12.6750012 C14.5,13.1306355 14.1362314,13.5000081 13.6875,13.5000081 L13.6875,13.5000081 L2.3125,13.5000081 C1.86376864,13.5000081 1.5,13.1306355 1.5,12.6750012 L1.5,12.6750012 L1.5,3.32501506 C1.5,2.86938082 1.86376864,2.50000809 2.3125,2.50000809 L2.3125,2.50000809 Z M8.27516667,5.39614882 L7.7335,5.39614882 C7.43434576,5.39614882 7.19183333,5.63066616 7.19183333,5.91995796 L7.19183333,5.91995796 L7.19183333,9.32471736 C7.19183333,9.61281238 7.00983333,9.69138375 6.78775,9.49966961 L6.78775,9.49966961 L5.39404167,8.29490859 C5.16590935,8.10317833 4.82383217,8.11274692 4.60754167,8.31690858 L4.60754167,8.31690858 L4.44504167,8.47143227 C4.34350443,8.56882019 4.28725151,8.70192883 4.28914359,8.84021157 C4.29113286,8.97849432 4.35110049,9.11007768 4.45533333,9.20476506 L4.45533333,9.20476506 L7.60891667,12.0940963 C7.83022533,12.2924077 8.17256744,12.291034 8.39216667,12.0909534 L8.39216667,12.0909534 L11.547375,9.15238415 C11.6502286,9.05688846 11.709129,8.92545825 11.7108996,8.78758342 C11.7125916,8.64970859 11.6570087,8.51693406 11.5565833,8.41905136 L11.5565833,8.41905136 L11.3940833,8.26190862 C11.1800221,8.0606624 10.8418407,8.05267487 10.617875,8.2435753 L10.617875,8.2435753 L9.21604167,9.48657438 C8.99666667,9.68352662 8.81683333,9.60495525 8.81683333,9.31686022 L8.81683333,9.31686022 L8.81683333,5.91995796 C8.81683333,5.63066616 8.57432091,5.39614882 8.27516667,5.39614882 L8.27516667,5.39614882 Z" id="path-1"></path>
    </defs>
    <g id="icons/theme/black/state-download" stroke="none" stroke-width="1" fill="none" fill-rule="evenodd">
        <mask id="mask-2" fill="white">
            <use xlink:href="#path-1"></use>
        </mask>
        <use id="Combined-Shape" fill="#000000" xlink:href="#path-1"></use>
    </g>
</svg>